<svg width="229" height="229" viewBox="0 0 229 229" fill="none" xmlns="http://www.w3.org/2000/svg">
<rect x="1" y="1" width="227" height="227" rx="21" fill="white" stroke="url(#paint0_linear_96_155)" stroke-width="2"/>
<g opacity="0.3">
<path d="M12.1612 56.7886C12.1612 56.7886 82.9928 34.7517 91.2749 46.3959C95.1283 51.8272 80.0647 61.7132 80.0647 61.7132C80.0647 61.7132 89.9279 53.2998 84.8714 50.7693C75.4434 46.058 27.1425 62.8552 27.1425 62.8552L12.1612 56.7886Z" fill="url(#paint1_linear_96_155)"/>
<path d="M54.3475 44.2421L43.6904 46.7665C41.9163 47.1962 40.139 47.5882 38.3707 48.0343C36.6023 48.4803 34.8307 48.8887 33.0631 49.3432C31.2954 49.7976 29.5295 50.2224 27.7717 50.6929C26.0139 51.1634 24.2611 51.6419 22.4931 52.0922C18.9854 53.0747 15.4905 54.1068 12 55.1892C15.3172 53.6396 18.7246 52.2909 22.2038 51.1505C23.944 50.5759 25.6963 50.0426 27.4557 49.5424C29.2151 49.0422 30.9865 48.5832 32.7576 48.1199C34.5287 47.6567 36.3147 47.2682 38.1057 46.8877C38.9972 46.6999 39.8928 46.5118 40.7896 46.3362C41.6864 46.1606 42.5866 45.9763 43.4852 45.8216C47.1088 45.1499 50.7247 44.5844 54.3475 44.2421Z" fill="url(#paint2_linear_96_155)"/>
<path d="M82.9051 56.5787C83.1478 56.15 83.3182 55.6843 83.4094 55.2002C83.4461 54.9719 83.4542 54.74 83.4335 54.5097C83.4057 54.2981 83.3347 54.0945 83.2249 53.9115C82.9956 53.5481 82.6539 53.2696 82.2518 53.1182C81.835 52.9418 81.3987 52.8155 80.952 52.7421C79.9972 52.6052 79.0317 52.5568 78.0679 52.5975C77.0932 52.6067 76.1073 52.6803 75.1274 52.7745C74.1474 52.8687 73.1599 52.972 72.1742 53.0962C71.1884 53.2205 70.2035 53.3531 69.2181 53.4815C67.239 53.7391 65.2598 54.0432 63.2489 54.2276C65.1294 53.5337 67.0528 52.962 69.007 52.5161C69.4945 52.3932 69.9877 52.2867 70.4824 52.197C70.977 52.1072 71.4699 51.9966 71.9698 51.919C72.9645 51.7518 73.9711 51.6257 74.9796 51.5206C77.0022 51.3732 79.0626 51.2732 81.1259 51.7852C81.6519 51.918 82.1572 52.1224 82.6275 52.3928C83.137 52.6756 83.5393 53.1183 83.7723 53.6524C83.9653 54.1856 83.9502 54.7719 83.7302 55.2946C83.5443 55.7738 83.2637 56.2105 82.9051 56.5787Z" fill="url(#paint3_linear_96_155)"/>
</g>
<g opacity="0.3">
<path d="M212.308 142.853C212.308 142.853 109.652 198.615 93.3109 183.193C85.6817 175.992 105.925 156.086 105.925 156.086C105.925 156.086 93.6372 171.051 101.857 174.465C119.582 181.836 212.308 142.853 212.308 142.853Z" fill="url(#paint4_linear_96_155)"/>
<path d="M150.97 175.195C156.506 173.526 161.902 171.559 167.259 169.443C168.603 168.927 169.935 168.378 171.263 167.823C172.592 167.269 173.92 166.714 175.262 166.166C177.911 165.028 180.52 163.812 183.141 162.62C185.762 161.428 188.341 160.125 190.898 158.796C193.455 157.467 196 156.105 198.512 154.702C203.541 151.873 208.393 148.742 213.042 145.324C207.972 148.075 202.88 150.757 197.782 153.331C195.19 154.568 192.678 155.928 190.057 157.111C187.437 158.293 184.892 159.595 182.301 160.822C179.71 162.049 177.106 163.261 174.499 164.449C171.893 165.638 169.276 166.834 166.677 168.042L150.97 175.195Z" fill="url(#paint5_linear_96_155)"/>
<path d="M103.098 164.894C102.664 165.615 102.464 166.453 102.526 167.292C102.561 167.738 102.68 168.174 102.878 168.575C103.086 168.969 103.353 169.328 103.67 169.641C104.316 170.244 105.08 170.708 105.913 171.003C106.711 171.307 107.537 171.529 108.379 171.665C111.664 172.092 114.995 172.042 118.266 171.516C119.888 171.277 121.49 170.994 123.084 170.649C123.878 170.479 124.669 170.285 125.456 170.085C126.243 169.886 127.039 169.697 127.815 169.455C130.944 168.583 134.012 167.509 137.002 166.241C133.782 166.717 130.626 167.372 127.463 167.946C125.875 168.225 124.307 168.558 122.722 168.8C121.137 169.043 119.571 169.348 117.994 169.548C116.417 169.749 114.859 169.951 113.249 170.102C111.688 170.231 110.121 170.25 108.558 170.157C107.797 170.096 107.041 169.976 106.298 169.799C105.571 169.639 104.881 169.339 104.269 168.914C103.977 168.705 103.716 168.456 103.493 168.174C103.284 167.874 103.125 167.542 103.023 167.191C102.838 166.433 102.864 165.639 103.098 164.894Z" fill="url(#paint6_linear_96_155)"/>
</g>
<g filter="url(#filter0_d_96_155)">
<path d="M19.1161 133.55V76.7499H57.2761V86.4299H30.1561V101.07H52.7161V110.03H30.1561V133.55H19.1161ZM63.9336 75.1499H74.6536V120.11C74.6536 122.03 74.9736 123.337 75.6136 124.03C76.2536 124.67 77.1336 124.99 78.2536 124.99C79.1069 124.99 79.9869 124.883 80.8936 124.67C81.8003 124.457 82.6003 124.19 83.2936 123.87L84.7336 132.03C83.2936 132.723 81.6136 133.257 79.6936 133.63C77.7736 134.003 76.0403 134.19 74.4936 134.19C71.1336 134.19 68.5203 133.31 66.6536 131.55C64.8403 129.737 63.9336 127.177 63.9336 123.87V75.1499ZM88.253 141.71C89.213 141.923 90.093 142.11 90.893 142.27C91.7463 142.43 92.4663 142.51 93.053 142.51C94.0663 142.51 94.893 142.243 95.533 141.71C96.2263 141.23 96.893 140.323 97.533 138.99C98.173 137.71 98.8396 135.897 99.533 133.55L82.973 91.6299H94.093L105.373 122.59L115.293 91.6299H125.533L107.933 141.87C107.293 143.737 106.306 145.417 104.973 146.91C103.693 148.457 102.066 149.657 100.093 150.51C98.173 151.417 96.013 151.87 93.613 151.87C92.7596 151.87 91.9063 151.79 91.053 151.63C90.1996 151.523 89.2663 151.31 88.253 150.99V141.71ZM159.997 133.55L147.757 115.47L142.077 121.07V133.55H131.357V75.1499H142.077V110.51L158.957 91.7099H170.317L154.717 109.47L171.437 133.55H159.997ZM193.219 134.35C189.859 134.35 186.819 133.79 184.099 132.67C181.379 131.497 179.059 129.923 177.139 127.95C175.219 125.923 173.726 123.63 172.659 121.07C171.646 118.457 171.139 115.71 171.139 112.83C171.139 108.83 172.019 105.177 173.779 101.87C175.593 98.5633 178.153 95.9233 181.459 93.9499C184.819 91.9233 188.766 90.9099 193.299 90.9099C197.886 90.9099 201.806 91.9233 205.059 93.9499C208.313 95.9233 210.793 98.5633 212.499 101.87C214.259 105.123 215.139 108.643 215.139 112.43C215.139 113.07 215.113 113.737 215.059 114.43C215.006 115.07 214.953 115.603 214.899 116.03H182.499C182.713 118.163 183.326 120.03 184.339 121.63C185.406 123.23 186.739 124.457 188.339 125.31C189.993 126.11 191.753 126.51 193.619 126.51C195.753 126.51 197.753 126.003 199.619 124.99C201.539 123.923 202.846 122.537 203.539 120.83L212.739 123.39C211.726 125.523 210.259 127.417 208.339 129.07C206.473 130.723 204.259 132.03 201.699 132.99C199.139 133.897 196.313 134.35 193.219 134.35ZM182.259 109.23H204.179C203.966 107.097 203.353 105.257 202.339 103.71C201.379 102.11 200.099 100.883 198.499 100.03C196.899 99.1233 195.113 98.6699 193.139 98.6699C191.219 98.6699 189.459 99.1233 187.859 100.03C186.313 100.883 185.033 102.11 184.019 103.71C183.059 105.257 182.473 107.097 182.259 109.23Z" fill="url(#paint7_linear_96_155)"/>
</g>
<defs>
<filter id="filter0_d_96_155" x="15.9911" y="73.0249" width="202.273" height="82.97" filterUnits="userSpaceOnUse" color-interpolation-filters="sRGB">
<feFlood flood-opacity="0" result="BackgroundImageFix"/>
<feColorMatrix in="SourceAlpha" type="matrix" values="0 0 0 0 0 0 0 0 0 0 0 0 0 0 0 0 0 0 127 0" result="hardAlpha"/>
<feOffset dy="1"/>
<feGaussianBlur stdDeviation="1.5625"/>
<feComposite in2="hardAlpha" operator="out"/>
<feColorMatrix type="matrix" values="0 0 0 0 0 0 0 0 0 0 0 0 0 0 0 0 0 0 0.15 0"/>
<feBlend mode="normal" in2="BackgroundImageFix" result="effect1_dropShadow_96_155"/>
<feBlend mode="normal" in="SourceGraphic" in2="effect1_dropShadow_96_155" result="shape"/>
</filter>
<linearGradient id="paint0_linear_96_155" x1="-6.00001" y1="-5.99994" x2="269.532" y2="44.9172" gradientUnits="userSpaceOnUse">
<stop stop-color="#FB4A4A"/>
<stop offset="1" stop-color="#2027CC"/>
</linearGradient>
<linearGradient id="paint1_linear_96_155" x1="9.15891" y1="42.294" x2="74.3149" y2="90.7503" gradientUnits="userSpaceOnUse">
<stop stop-color="#FB4A4A"/>
<stop offset="1" stop-color="#2027CC"/>
</linearGradient>
<linearGradient id="paint2_linear_96_155" x1="9.15891" y1="42.294" x2="74.3149" y2="90.7503" gradientUnits="userSpaceOnUse">
<stop stop-color="#FB4A4A"/>
<stop offset="1" stop-color="#2027CC"/>
</linearGradient>
<linearGradient id="paint3_linear_96_155" x1="9.15891" y1="42.294" x2="74.3149" y2="90.7503" gradientUnits="userSpaceOnUse">
<stop stop-color="#FB4A4A"/>
<stop offset="1" stop-color="#2027CC"/>
</linearGradient>
<linearGradient id="paint4_linear_96_155" x1="87.2741" y1="141.323" x2="208.193" y2="204.383" gradientUnits="userSpaceOnUse">
<stop stop-color="#FB4A4A"/>
<stop offset="1" stop-color="#2027CC"/>
</linearGradient>
<linearGradient id="paint5_linear_96_155" x1="87.2741" y1="141.323" x2="208.193" y2="204.383" gradientUnits="userSpaceOnUse">
<stop stop-color="#FB4A4A"/>
<stop offset="1" stop-color="#2027CC"/>
</linearGradient>
<linearGradient id="paint6_linear_96_155" x1="87.2741" y1="141.323" x2="208.193" y2="204.383" gradientUnits="userSpaceOnUse">
<stop stop-color="#FB4A4A"/>
<stop offset="1" stop-color="#2027CC"/>
</linearGradient>
<linearGradient id="paint7_linear_96_155" x1="5.94276" y1="55.2077" x2="228.494" y2="144.461" gradientUnits="userSpaceOnUse">
<stop stop-color="#FB4A4A"/>
<stop offset="1" stop-color="#2027CC"/>
</linearGradient>
</defs>
</svg>
